<?xml version="1.0" encoding="UTF-8"?>
<svg viewBox="0 0 217.09546 258.05435" xmlns="http://www.w3.org/2000/svg">
 <path transform="translate(-19.002 -12.653)" d="m124.5 270.28c-4.9597 0.55816-8.6934-2.5832-8.5793-7.5188-0.80796-2.0549-4.8705 0.36727-6.8627-0.06749-8.6558 1.4727-17.423 0.89356-26.083-0.17187-3.6958-1.3587-7.0556 5.6098-8.7982-0.16533-7.3131 2.0115-11.046-8.1593-4.8863-11.903 4.0374-1.4799 2.1022 7.7995 7.6596 3.9894 7.7335-4.0043 8.107-13.54 11.489-20.557 2.259-5.4565 9.76-7.4266 8.649-13.495 5.5834-2.9085 12.497 0.00638 18.609-0.27914 5.6243 0.95162 9.3817-3.2536 15.382-1.6114 5.8705-0.13565 11.663 1.2749 16.575 4.5438 8.8635 4.636 19.98 3.9092 28.786-0.52537 3.8326-4.0539 14.959 0.91445 9.3371 5.4077-2.6288-7.0071-9.7444-1.5606-14.572 0.30578-10.421 3.8413-21.512-0.37399-30.632-5.5613-5.3386-1.5416 1.5024 5.1744 4.1115 4.4229 5.187 2.9123 8.7395 8.2295 8.2001 14.323 0.70297 4.9304-0.43101 13.542 6.4882 13.929 3.6264 1.3353 5.0306 3.8608 6.22-0.46439 2.8989 0.92024 1.0319 6.8458 4.4809 5.9344 6.2443-0.13836 12.605-1.3527 18.772-0.27095-2.1338 4.4711-9.2589 0.50512-13.343 2.5349-1.5727 0.30862-5.9774 0.8304-1.9795 0.71976 3.4048 0.27301 7.17-0.48121 10.255 1.0753-4.5363 2.8075-11.42 0.8173-16.833 0.92215-5.2443-0.55896 3.2162-3.2132-2.0764-2.1202-5.7258 0.65672-13.243 2.0374-16.843-3.7764-5.4901-7.4369-6.2946-16.873-7.2742-25.734-0.56643-5.761-5.4253-10.918-11.532-9.9205-2.0891 0.04292-4.8639-0.62834-4.0667 2.421-0.58143 8.2078-0.41256 16.647-2.9263 24.509-0.69667 5.6654 2.7608 10.995 2.8375 15.739 5.6792 1.1752 12.081-0.74592 17.355 1.6728-2.6152 3.6903-9.8293 1.3074-14.294 1.8892-1.2088-0.04173-2.4194-0.07821-3.6236-0.19726zm-8.7756-14.282c0.61747-5.8419-0.28681-11.93 1.3322-17.605 3.8662-1.5445-1.8296-5.591 0.0522-9.1171-0.9642-8.026-9.3028-2.0081-12.845 0.77507-5.6889 4.1634-9.1217 10.504-11.469 16.996-2.1176 4.7762-6.0711 8.2586-9.6777 11.887 10.793 0.25932 21.586 0.61544 32.383 0.56442l0.22438-3.5zm-42.224 2c-2.0608-3.8617-5.6888 2.9902 0 0zm13.456-6.3003c3.4483-6.7137-10.731 7.2644-5.028 4.1671 1.8132-1.1929 3.668-2.4508 5.028-4.1671zm63.794-14.218c-0.15802-6.3297-3.474 0.19451-0.875 2.5182 0.9071-0.38776 0.76973-1.7331 0.875-2.5182zm-69.479 2.9141c3.684-1.1251 1.5547 1.8126 0 0zm5.0352-12.49c-5.2615-2.8026-12.802 0.56691-17.002-4.3939-5.1244-2.8079-7.41-10.794-14.631-7.1261-4.6012 3.9394-11.101 2.0522-16.589 1.239-4.3619-1.6483-8.1368-5.2183-6.4352-10.142-6.3572 0.34159-8.6133-5.6959-12.646-8.7129 5.4678-5.6063 7.682-13.57 11.304-20.403 2.4598-4.8539 4.8008-9.7905 5.9339-15.145 5.1622-11.093 8.8121-22.892 12.077-34.677 1.3372-6.4244 9.2367-5.1726 14.183-6.1885 5.2044-1.5042 12.652 1.2148 16.291-2.8568 2.6302-8.9292 1.3286-18.412 2.284-27.578-0.48433-5.4298 2.3722-9.6135 4.6701-14.67 6.0175-8.462 6.3994-19.17 7.2425-29.131-0.42312-4.3495-5.3915-8.6983 0.63234-11.185 0.3911-2.7973-0.05838-5.6271-0.1205-8.4366 2.7076 0.55764 7.7624-0.52751 8.2037 2.9915-2.1619 4.9982 2.407 9.659-0.17125 14.913 0.03051 7.6328-0.18509 15.487 1.8374 22.896 1.6184 5.247 6.1243 9.7786 6.2282 15.242-2.0828-0.72708-4.5502-3.8754-3.4501 1.3381-0.83836 3.1458 2.6112 5.9036 2.1513 1.2373-4.5035-3.9077 7.1956-0.39935 2.402 2.8642 1.2158 2.8095 1.2888 5.9436-2.0629 7.5174 2.5963 2.8202 1.1777 7.5256 1.4572 11.115 2.2941 3.9606-2.7436 13.838 5.2961 10.965 6.1698-1.1334 13.468-0.41113 18.325-5.037 4.3568-3.6886 3.3959-11.488 3.8003-16.937-5.2935-0.06338-8.2193-4.4829-10.612-8.2949-4.3282-1.4281-14.554 1.279-12.794-6.2102 1.553-12.951 3.924-25.793 5.6674-38.72 2.1728-8.8139 2.4894-18.09 4.4437-27.001-0.47107-8.3658 8.7176-2.8849 13.628-3.8021 12.959 0.79264 25.961 0.32879 38.917 0.83788 5.1933-0.22734 1.4294 3.1936 1.6308 5.1525 4.6112 1.608 0.58802 10.42-0.78403 14.288-1.0143 7.4478-0.83222 15.064-2.5219 22.452-0.93056 6.7438-3.3702 13.143-4.9758 19.692-1.6499 5.1597 2.3522 16.705-5.463 16.506-5.4473 0.61376-11.365-0.87485-16.496 1.178-4.8308 1.5725-9.5896 4.1799-8.2523 10.316-0.66385 5.4878 0.12018 10.589 3.7795 14.686 5.307 2.105 11.423 0.73208 17.057 1.4246 6.3853 0.16615 12.736 1.0572 19.067 1.6588 2.9259-3.4372 2.5516-10.697-1.843-13.264-6.2459-2.3058-8.923-8.7957-7.2673-15.03 0.8018-5.2041 0.39-13.975 7.9112-13.583 6.5307-0.65124 13.525-1.6396 19.5 1.7925 2.417 0.46974 3.4862 1.8269 2.8913 4.2794-0.28284 5.4867 0.8799 11.288-1.2471 16.477-2.012 6.5491-10.369 4.6075-13.038 9.7746-3.8103 2.1987-0.834 6.8861 0.16882 9.3558 6.7249-0.11475 13.33 1.9973 20.037 2.5736 5.2091 1.3375 11.646-0.32713 15.827 3.6599 3.0908 5.2379 1.8057 11.792 2.9134 17.596 1.338 10.791 1.4604 21.813 4.1725 32.38 1.488 5.2434 3.0911 10.544 5.8936 15.227 2.5186 6.6706-8.7316 6.4151-6.1018 12.569 1.5636 7.8239-8.6624 5.9103-12.333 9.502-5.7884 0.97386-3.2522 9.773-9.7212 8.9858-5.2746 5.4764-12.148 3.6197-17.094-1.3403-2.8914-0.72456-5.1089-6.7049-0.46464-3.6748 4.8195 2.4595 11.584 7.8418 16.129 1.961 1.2992-1.5418 3.7008-2.6483 2.921-5.0108-0.12016-8.3608-0.97579-16.765-0.30826-25.096 1.9517 7.6051 1.1794 15.957 2.6024 23.786 4.2034-4.4149 11.081-3.8977 15.201-7.8502-2.3359-8.9181-2.1171-18.323-3.8853-27.381-0.87514-8.9614-2.6419-17.944-2.3279-26.953 3.0515 2.4346 1.8958 11.168 3.5116 15.994 1.7784 9.444 2.2122 19.256 5.4494 28.354 4.7431 1.3514 1.4014-7.8674 0.26868-10.734-3.2368-12.132-4.636-24.61-6.2135-37.028-1.119-5.9947-2.142-12.054-2.6674-18.098-4.6907-2.2823-10.637-1.9445-15.867-2.2166-9.1654 2.244-18.751 2.0807-28.121 1.4507-6.7343-2.2052 4.1299-3.4994 6.4366-2.9641 5.6918-0.80793 11.2 1.6593 16.808 0.48956 2.8136-1.4298-6.9458-2.124-8.9772-2.9913-5.5959-0.79231-10.747 0.95144-16.488-0.49362-7.3614-0.09472-14.727-0.63294-22.042-1.1944 1.4624 5.7188 9.1208 1.6156 12.986 3.8105-3.5406 2.7932-10.985 1.518-16.047 2.2207-12.65 0.5993-25.377 0.31953-37.961 1.849-4.8923 1.3943 4.5678 0.66933 6.086 2.2617 24.804 1.2276 49.659 0.45434 74.48 1.0083 6.6534-0.19832 13.286-1.3612 19.902-1.5794 0.83478 5.2659-8.9031 2.3071-12.692 3.6853-11.561 1.2376-23.22 0.23534-34.826 0.51254-16.206-0.15306-32.419 0.31317-48.616-0.01606-12.587-0.42283-25.119-1.7077-37.639-2.9084-4.4525 1.9894-6.7204-4.2518-1.6152-3.9189 5.7497-0.90361 0.62077-7.6456-3.5592-5.119-6.2644 0.73586-12.651 1.0675-18.775 2.6166-4.1516 3.6399-2.6283 10.398-6.0476 14.791-4.3054 11.568-8.6753 23.122-13.968 34.288-3.0021 7.3683-6.2845 14.617-10.195 21.552 1.88 2.5225 4.4445 7.6333 8.0657 4.7905 2.7069-5.6835 3.4678-12.207 5.1835-18.277 1.7496-6.326 2.3185-12.968 4.3594-19.182 3.2227-0.06415-0.56044 8.1803-0.26827 11.126-1.0214 8.3857-5.0729 16.169-4.7661 24.738-2.4128 5.0733-2.076 13.941 5.8182 13.211 6.9589 0.65336 13.993-4.682 20.72-1.369 5.0953 3.2632 8.8202 9.3669 15.459 9.6522 3.0705 1.636 12.275 0.42595 11.412 4.7275-0.81713 1.5394-2.4983 1.9644-3.6323 0.36214zm33.494-100.11c5.1324-6.7024-6.0159-6.856-9.1848-4.1766-1.8305 4.7113 6.7427 6.1283 9.1848 4.1766zm-29.8-1.8664c-2.1145-5.9987-10.024 4.054-1.5639 1.9742 1.021 0.02761 1.7331-1.034 1.5639-1.9742zm4 0.06642c-2.5015-7.366-2.3872 7.2141 0 0zm31.49-0.0163c-4.5103-2.5651-1.3759 4.0164 0 0zm12.776-2.0753c-2.7016-3.4502-9.367-0.75047-13.266-2.1152 2.1616 3.4003 12.128 6.6326 13.266 2.1152v-4e-5zm5.9384 1.0916c1.3052-4.2086-7.2761-2.9756-3.348 0.7686 1.1319-0.1967 2.1725-0.76717 3.348-0.7686zm-51.972-4.9864c1.7459-0.39817 5.0846 0.81081 5.7397-0.6881-0.02658-8.6597 0.5262-17.381-0.30703-25.994-3.6541-1.2407-15.583 0.39978-11.27-5.879 2.4521-2.7789 1.0004-8.2279-1.223-2.5467-1.7487 2.8667-2.9154 6.1642-0.83193 8.3262-2.4548 6.6702-1.8702 14.024-2.3037 21.054l-0.24092 7.0007c3.3668-1.0912 6.9221-1.246 10.437-1.2733zm44.768-2.0136c-3.462-4.0837-4.2139 3.9349 0 0zm-30.676-11.222c-1.364-1.5629 0.74162-9.1236-1.8866-10.682-0.51923 3.4619-7.8263 5.2499-2.4168 7.486-2.2094-3.728 3.8351-2.7329 1.1202 0.62073-0.75063 3.7774 0.8961 7.538 1.335 11.297 0.39266-2.9232 0.00432-6.2447 1.8481-8.7217zm79.446 3.4092c-2.5074-4.3038-3.6676 5.0765 0 0zm9.759-7.3321c3.3825-3.9637 2.8301-9.5019 3.6095-14.355-6.9098-0.16562-13.888 0.43887-20.74-0.55596-5.4348-6.2196-4.8897 4.9199-5.0817 8.5912-0.52995 6.5311 6.5674 10.017 12.243 9.3577 3.4379-0.15228 7.3165-0.62352 9.9688-3.0375zm-50.708-10.922c2.425-1.6249-5.2863 0.78883-6.9631 0.06629-3.5809-0.93553-6.2202 2.1647-1.0508 1.7583 2.7264-0.14747 5.5817-0.49891 8.0139-1.8246zm0.01669-5.2301c3.3975-1.1356 5.9616 3.8327 10.27 2.2804 3.5578 0.03052 7.1159 0.01003 10.674 0.016 3.3034-21.942 5.7074-44.015 9.2806-65.914 3.4704-6.9098-5.8804-5.7084-10.006-5.6618-7.7254 0.8381-15.518 0.93196-23.208-0.33359-4.7056 0.18927-11.758-2.0189-14.774 2.4986-4.9184 19.739-6.3627 40.093-9.7607 60.103-2.3497 5.8998 1.9544 7.0074 6.8939 6.2517 3.8923 2.6045 8.2272-3.3106 10.372 1.8034 3.081 1.8145 7.1593-0.06241 10.259-1.0435zm-2.6724-13.704c3.9597-4.7701 2.7654 4.4782 0 0zm-8.1667-1.5c2.4983-5.3571 1.9552 5.152 0 0zm11.25-4.75c2.1683-4.5004 6.1521 2.0766 0.8568 1.1578-0.50554-0.07099-1.1047-0.58439-0.8568-1.1578zm-16.25-1.2814c0.38753-5.5982 14.21 1.1229 5.5035 1.5101-1.5996-0.20678-4.987 0.65759-5.5035-1.5101zm12.34-2.2576c-5.0018 0.33419-11.306-1.8932-14.2-4.4797 1.4084-7.8467 9.4263-6.0445 14.906-4.3258 5.2113 1.6999 10.732 1.647 16.102 2.2752 6.97 2.6794-8.4613 2.6774-1.3804 5.5843-2.6398 3.2428-10.14 0.28231-14.577 0.97651l-0.85069-0.03041zm9.6599-3.0923c-4.0445-2.6888-9.3356-3.181-14.074-4.1491-2.7167-1.5291-9.0566 1.0488-3.5686 2.7926 5.7055 1.1056 11.735 1.9584 17.441 1.6118l0.20178-0.25527zm-8.5-12.16c-5.1087-1.6264-13.247-2.0437-13.448-9.0895-1.1043-2.6776 3.2836-11.22 3.3808-4.7334-3.3809 6.4777 4.5241 10.611 9.9305 10.946 7.3188 1.5456 16.849-1.0674 19.068-9.037 1.4205-5.882-5.3616-9.293-9.995-10.73-5.4437-0.33131-12.433-1.0191-15.918 4.1495-5.1607 3.5818-0.31071-5.9971 3.0925-5.4481 9.0208-4.6497 21.728-0.73807 25.974 8.5793 1.9707 7.0065-5.1759 12.447-10.963 14.607-3.5187 1.2997-7.4737 1.8577-11.122 0.75532zm0.5-8.9585c2.6925-4.03 2.3567 3.8934 0 0zm12-5.441c2.257-3.6975 2.9264 1.9063 0 0zm-53 52.382c-2.0808-5.0015-0.82914 5.7153 0 0zm-3.4527-0.01758c1.0676-4.1227-6.7333-4.9432-2.8319-1.4828 0.15576 1.7837 1.1995 3.8546 2.8319 1.4828zm-6.0473-0.92341c-4.4576-3.4671-1.4038 3.6422 0 0zm102.18-0.34568c-1.8999-4.1512-11.41-3.1075-15.41-1.0246 2.3653 3.7741 10.325 1.3889 14.7 1.3087l0.70974-0.28419h1e-5zm-101.39-4.7495c0.9313-1.2869 0.42181-9.7075-1.6823-5.6916-3.4873 2.5544-4.0538 11.564 1.6823 5.6916zm8.7099-8.4638c-2.7499-2.0094-2.4446 3.7204 0 0zm-6.6303-6.691c0.50026-3.4978 1.4109-8.3677-0.25896-11.2-0.95389 3.1242-3.0638 12.566-0.39271 12.789l0.35689-0.71543 0.29478-0.87363zm5.6601-3.6943c-1.1256-3.1216-4.7979-3.6343-1.8467 0.21287 0.63847 1.6729 3.6049 2.7466 1.8467-0.21287zm71.97-0.0557c-2.8663-3.6202-0.9606 3.1497 0 0zm-74.138-12.751c-0.51216-2.3964 2.4395-8.5089-1.0856-4.3414-6.125-0.63036-1.1624 11.971 1.1438 5.0941l-0.05817-0.75268zm0.13779-8.2846c-2.6563-3.8141-9.1618 2.802-2.7285 2.2183 1.0811-0.32052 2.5696-0.92698 2.7285-2.2183zm-1-6.5238c-1.9819-3.5943-1.8841 4.8069 0 0zm94.437 180.81c0.18572-2.4136-2.3964-9.8968-2.4064-3.5 0.48501 2.9856-1.8323 6.2186-1.6437 1.0599-0.47373-6.7251-0.28778-13.51-0.51513-20.223 2.7782-0.86266 1.9895 5.6704 2.6091 8.1021 0.2868 3.8429 0.23912-1.1949 0.32936-2.5709-0.35518-2.9693 1.0065-9.1595 1.7137-2.891 1.0875 8.0564 0.78606 16.293 2.1963 24.286-1.5555 1.7329-2.0154-3.4098-2.2832-4.2634zm-4.4456-54.5c0.62398-3.4817-2.3396-10.471-0.01245-12.092 1.5303 3.8953 3.395 11.412 0.71593 14.165-0.55807-0.52735-0.68077-1.3472-0.70348-2.0725zm-68.991-27.691c2.6872-3.7288 1.9172 2.3637 0 0z"/>
</svg>
